<svg xmlns="http://www.w3.org/2000/svg" shape-rendering="geometricPrecision" text-rendering="geometricPrecision" image-rendering="optimizeQuality" fill-rule="evenodd" clip-rule="evenodd" viewBox="0 0 512 307.575"><path fill="#E95565" d="M505.677 124.888C530.701 98.601 474.848-1.85 452.834.026c-6.8.579-13.428 7.503-25.475 17.819-12.243 10.484-24.064 21.287-35.632 32.401-47.312 57.168-172.977 228.255-255.295 155.928l.169-.343-.581-.189c-6.715-.678-15.002 5.251-22.545 8.707-13.926 6.71-129.763 24.496-107.875 45.495a6.822 6.822 0 011.61-.044c.196.012.394.046.591.104a785.08 785.08 0 0045.956 12.173 743.863 743.863 0 0046.946 9.338c5.12.846 9.48 1.582 13.846 2.319 42.701 7.206 86.223 14.549 123.482 8.65 44.638-7.068 65.247-33.673 87.899-62.918 20.093-25.941 41.759-53.911 82.751-72.825 20.66-9.531 44.149-16.821 73.605-25.961 4.542-1.41 9.215-2.86 15.812-4.927 2.836-.886 5.34-1.223 7.255-.922l.324.057zm-167.971-19.18c-11.823 12.783-23.661 25.903-35.712 39.354 11.98-13.191 23.788-26.358 35.712-39.354z"/><path fill="#F6C6A9" d="M301.994 145.062c-47.304 52.078-93.88 84.475-165.393 60.769l-.169.343c82.32 72.329 207.988-98.767 255.298-155.931-31.77 29.97-60.224 62.327-89.736 94.819z"/><path fill="#4B525A" fill-rule="nonzero" d="M472.42 304.158h-18.7v-.011a2.711 2.711 0 01-2.71-2.667l-1.526-93.206-.311-16.117c-.468-7.564-2.234-13.699-6.149-17.509-3.866-3.764-10.067-5.43-19.521-4.193-38.83 5.087-64.104 37.599-88.196 68.592-9.518 12.244-18.858 24.258-28.895 34.429-7.681 7.785-15.62 13.789-23.778 18.459-8.165 4.673-16.548 8.015-25.117 10.472-18.765 5.381-43.616 6.152-70.841 4.174-27.071-1.967-56.519-6.649-84.644-12.205-18.515-3.658-36.655-7.748-53.213-11.704-16.162-3.86-30.717-7.577-42.622-10.631-4.601-1.184-8.244-5.034-4.894-9.612 1.359-1.859 4.222-3.192 6.498-2.525a785.08 785.08 0 0045.956 12.173 743.863 743.863 0 0046.946 9.338c5.12.846 9.48 1.582 13.846 2.319 42.701 7.206 86.223 14.549 123.482 8.65 44.638-7.068 65.247-33.673 87.899-62.918 20.093-25.941 41.759-53.911 82.751-72.825 20.66-9.531 44.149-16.821 73.605-25.961 4.542-1.41 9.215-2.86 15.812-4.927 2.836-.886 5.34-1.223 7.255-.922 7.444 1.163 4.544 8.723 1.818 12.839-4.834 8.521-10.1 18.947-14.718 30.403-3.738 9.27-7.05 19.205-9.361 29.332-2.797 12.249-4.819 28.445-6.134 45.596-1.512 19.719-2.087 40.591-1.832 58.157l.014.279a2.722 2.722 0 01-2.72 2.721z"/><path fill="#D24D5B" fill-rule="nonzero" d="M109.706 203.862l10.496.295-9.29-10.308c-2.657-2.337-5.035-2.643-6.779-1.839-1.54.709-2.785 2.159-3.472 3.846-.638 1.569-.759 3.243-.123 4.543.938 1.916 3.684 3.402 9.062 3.462l.106.001zm46.802-5.531l-20.271 15.743c-.102.08-.206.155-.312.227a5.404 5.404 0 01-3.357 1.049l-23.16-.653c-10.182-.144-16.005-4.237-18.6-9.538-2.09-4.269-1.942-9.146-.218-13.381 1.676-4.119 4.891-7.734 8.996-9.626 5.444-2.508 12.183-2.141 18.693 3.718.182.154.355.323.519.505l10.312 11.443 2.487-17.619c1.748-8.992 7.04-13.497 13.032-14.79l.264-.05c4.45-.888 9.191.143 13.017 2.489 4.004 2.456 7.112 6.387 8.025 11.146 1.146 5.987-1.117 12.967-9.441 19.319l.014.018zm-16.364-1.055l9.692-7.528.014.018.05-.04c4.458-3.39 5.806-6.415 5.37-8.693-.304-1.585-1.476-2.98-3.011-3.921-1.592-.976-3.486-1.429-5.194-1.114l-.142.033c-2.026.438-3.884 2.283-4.651 6.143l-2.128 15.102z"/></svg>